<svg xmlns="http://www.w3.org/2000/svg" xmlns:xlink="http://www.w3.org/1999/xlink" width="200" zoomAndPan="magnify" viewBox="0 0 150 60" height="80" preserveAspectRatio="xMidYMid meet" version="1.0"><defs><g/><clipPath id="e09d4b85aa"><path d="M 3 2.230469 L 58.941406 2.230469 L 58.941406 48 L 3 48 Z M 3 2.230469 " clip-rule="nonzero"/></clipPath><clipPath id="8af8deb6a1"><path d="M 11 12 L 50 12 L 50 57.730469 L 11 57.730469 Z M 11 12 " clip-rule="nonzero"/></clipPath></defs><g clip-path="url(#e09d4b85aa)"><path fill="#231f20" d="M 58.453125 36.519531 C 57.980469 31.484375 56.59375 30.136719 56.078125 29.78125 C 55.5625 29.421875 55.445312 28.707031 55.246094 28.511719 C 55.179688 28.445312 54.675781 28.253906 54.011719 28.027344 L 54.121094 28.046875 C 53.9375 22.371094 53.011719 2.347656 30.832031 2.234375 C 30.828125 2.234375 30.820312 2.234375 30.816406 2.234375 C 30.8125 2.234375 30.804688 2.234375 30.800781 2.234375 C 8.621094 2.351562 7.695312 22.371094 7.507812 28.046875 L 7.621094 28.027344 C 6.957031 28.25 6.449219 28.445312 6.386719 28.511719 C 6.191406 28.707031 6.070312 29.421875 5.554688 29.78125 C 5.039062 30.136719 3.652344 31.484375 3.179688 36.519531 C 2.703125 41.550781 4.464844 44.242188 5.742188 44.539062 C 6.125 45.800781 8.40625 47.496094 10.191406 47.695312 C 11.972656 47.894531 13.914062 46.980469 13.914062 46.980469 C 13.914062 46.980469 14.691406 46.8125 14.867188 45.960938 C 11.738281 39.863281 12.929688 27.601562 12.929688 27.601562 C 12.929688 27.601562 11.816406 27.363281 11.378906 27.125 C 11.359375 22.84375 14.488281 17.136719 14.488281 17.136719 C 14.488281 17.136719 16.273438 18.382812 18.589844 15.140625 C 20.910156 11.894531 27.269531 10.773438 30.800781 10.792969 C 30.808594 10.792969 30.8125 10.792969 30.816406 10.792969 C 30.824219 10.792969 30.828125 10.792969 30.832031 10.792969 C 34.367188 10.773438 40.726562 11.894531 43.042969 15.140625 C 45.363281 18.386719 47.144531 17.136719 47.144531 17.136719 C 47.144531 17.136719 50.277344 22.84375 50.253906 27.125 C 49.820312 27.363281 48.707031 27.601562 48.707031 27.601562 C 48.707031 27.601562 49.898438 39.863281 46.769531 45.960938 C 46.941406 46.8125 47.71875 46.980469 47.71875 46.980469 C 47.71875 46.980469 49.660156 47.894531 51.445312 47.695312 C 53.226562 47.496094 55.511719 45.804688 55.890625 44.539062 C 57.167969 44.242188 58.929688 41.550781 58.453125 36.519531 Z M 4.40625 42.621094 C 4.207031 42.265625 3.769531 40.460938 3.671875 38.125 C 3.507812 34.253906 4.839844 31.484375 4.839844 31.484375 L 5.355469 30.988281 C 5.355469 30.988281 4.957031 33.1875 4.800781 35.644531 C 4.644531 38.101562 5.058594 42.367188 5.496094 43.714844 C 4.898438 43.535156 4.601562 42.980469 4.40625 42.621094 Z M 7.824219 45.777344 C 7.058594 43.414062 6.742188 38.863281 7.050781 31.539062 C 5.703125 37.847656 6.515625 43.253906 7.054688 45.316406 C 6.761719 45.109375 6.53125 44.902344 6.40625 44.722656 C 5.988281 44.128906 5.574219 41.304688 5.496094 36.992188 C 5.417969 32.683594 6.523438 29.472656 6.910156 29.085938 C 7.296875 28.699219 9.347656 28.046875 9.347656 28.046875 C 9.347656 28.046875 8.515625 30.453125 8.308594 34.675781 C 8.097656 38.898438 8.425781 43.117188 9.523438 46.386719 C 9 46.304688 8.378906 46.066406 7.824219 45.777344 Z M 11.785156 28.046875 C 10.65625 30.871094 10.269531 36.578125 10.921875 45.960938 C 8.457031 36.816406 10.359375 29.085938 10.921875 28.046875 C 10.921875 28.046875 11.546875 27.808594 11.785156 28.046875 Z M 8.980469 27.097656 C 8.878906 27.191406 8.558594 27.238281 8.25 27.097656 C 8.25 23.335938 10.230469 16.113281 10.738281 15.6875 C 10.921875 15.746094 11.25 15.871094 11.578125 16.140625 C 10.425781 17.707031 9.414062 22.054688 8.980469 27.097656 Z M 30.816406 5.128906 C 29.25 5.148438 21.945312 5.492188 14.726562 9.761719 C 15.84375 8.351562 20.820312 3.261719 30.800781 3.109375 C 30.804688 3.109375 30.808594 3.109375 30.816406 3.109375 C 30.820312 3.109375 30.824219 3.109375 30.832031 3.109375 C 40.8125 3.261719 45.785156 8.347656 46.90625 9.761719 C 39.6875 5.492188 32.378906 5.148438 30.816406 5.128906 Z M 50.054688 16.140625 C 50.382812 15.871094 50.707031 15.746094 50.894531 15.6875 C 51.398438 16.113281 53.378906 23.335938 53.382812 27.097656 C 53.074219 27.238281 52.75 27.191406 52.648438 27.097656 C 52.21875 22.054688 51.207031 17.707031 50.054688 16.140625 Z M 50.710938 45.960938 C 51.363281 36.578125 50.976562 30.871094 49.847656 28.046875 C 50.085938 27.808594 50.710938 28.046875 50.710938 28.046875 C 51.273438 29.085938 53.175781 36.816406 50.710938 45.960938 Z M 55.226562 44.722656 C 55.097656 44.902344 54.867188 45.109375 54.574219 45.316406 C 55.117188 43.253906 55.929688 37.851562 54.582031 31.539062 C 54.886719 38.863281 54.570312 43.414062 53.808594 45.777344 C 53.25 46.066406 52.632812 46.304688 52.105469 46.386719 C 53.203125 43.117188 53.53125 38.898438 53.324219 34.675781 C 53.117188 30.453125 52.285156 28.046875 52.285156 28.046875 C 52.285156 28.046875 54.335938 28.699219 54.722656 29.085938 C 55.105469 29.472656 56.214844 32.683594 56.136719 36.992188 C 56.058594 41.304688 55.640625 44.128906 55.226562 44.722656 Z M 57.960938 38.125 C 57.859375 40.460938 57.425781 42.265625 57.226562 42.621094 C 57.027344 42.980469 56.730469 43.535156 56.136719 43.714844 C 56.570312 42.367188 56.988281 38.101562 56.832031 35.644531 C 56.671875 33.191406 56.277344 30.988281 56.277344 30.988281 L 56.789062 31.484375 C 56.789062 31.484375 58.125 34.253906 57.960938 38.125 Z M 57.960938 38.125 " fill-opacity="1" fill-rule="nonzero"/></g><g clip-path="url(#8af8deb6a1)"><path fill="#231f20" d="M 47.683594 39.460938 C 47.613281 37.183594 48.53125 37.175781 49.28125 32.976562 C 51.621094 19.859375 40.382812 12.542969 30.894531 12.542969 C 30.871094 12.546875 30.84375 12.546875 30.816406 12.546875 C 30.789062 12.546875 30.761719 12.546875 30.734375 12.542969 C 21.25 12.542969 10.007812 19.859375 12.351562 32.976562 C 13.101562 37.171875 14.019531 37.183594 13.945312 39.460938 C 13.90625 40.757812 12.84375 42.742188 11.875 44.082031 C 12.664062 44.460938 13.640625 45.011719 14.394531 45.882812 C 15.222656 45.429688 16.554688 44.859375 18.03125 44.859375 C 19.410156 44.859375 20.617188 45.382812 21.515625 46.371094 C 23.410156 48.445312 22.617188 50.476562 21.773438 51.820312 C 21.476562 52.296875 21.5 52.894531 21.800781 53.363281 C 22.1875 53.980469 22.394531 54.542969 22.441406 55.132812 C 22.472656 55.570312 22.78125 55.933594 23.195312 56.066406 C 23.535156 56.175781 23.957031 56.320312 24.429688 56.492188 C 24.621094 56.5625 24.820312 56.421875 24.820312 56.222656 L 24.820312 56.113281 C 24.820312 55.832031 25.011719 55.574219 25.289062 55.519531 C 25.667969 55.441406 26 55.730469 26 56.097656 L 26 56.804688 C 26 56.933594 26.085938 57.046875 26.210938 57.082031 C 26.605469 57.191406 27.003906 57.289062 27.402344 57.371094 C 27.582031 57.40625 27.746094 57.269531 27.746094 57.085938 L 27.746094 57.015625 C 27.746094 56.734375 27.9375 56.308594 28.214844 56.25 C 28.59375 56.175781 28.929688 56.632812 28.929688 57 L 28.929688 57.34375 C 28.929688 57.492188 29.042969 57.617188 29.191406 57.632812 C 30.269531 57.734375 31.359375 57.734375 32.441406 57.632812 C 32.589844 57.617188 32.703125 57.492188 32.703125 57.34375 L 32.703125 57.015625 C 32.703125 56.734375 32.894531 56.476562 33.167969 56.421875 C 33.550781 56.34375 33.882812 56.632812 33.882812 57 L 33.882812 57.085938 C 33.882812 57.269531 34.050781 57.40625 34.226562 57.371094 C 34.628906 57.289062 35.023438 57.191406 35.417969 57.082031 C 35.542969 57.046875 35.628906 56.933594 35.628906 56.804688 L 35.628906 56.113281 C 35.628906 55.832031 35.820312 55.574219 36.097656 55.519531 C 36.476562 55.441406 36.8125 55.730469 36.8125 56.097656 L 36.8125 56.222656 C 36.8125 56.421875 37.011719 56.5625 37.199219 56.492188 C 37.671875 56.320312 38.09375 56.171875 38.433594 56.066406 C 38.851562 55.933594 39.15625 55.570312 39.191406 55.132812 C 39.234375 54.542969 39.441406 53.980469 39.832031 53.363281 C 40.128906 52.894531 40.152344 52.292969 39.859375 51.820312 C 39.015625 50.472656 38.21875 48.445312 40.113281 46.367188 C 41.015625 45.378906 42.21875 44.859375 43.597656 44.859375 C 45.078125 44.859375 46.410156 45.425781 47.238281 45.882812 C 47.988281 45.011719 48.96875 44.460938 49.757812 44.082031 C 48.785156 42.742188 47.726562 40.757812 47.683594 39.460938 Z M 30.816406 15.6875 C 37.765625 15.6875 43.398438 19.113281 43.398438 23.339844 C 43.398438 27.5625 37.765625 30.988281 30.816406 30.988281 C 23.867188 30.988281 18.230469 27.5625 18.230469 23.339844 C 18.230469 19.113281 23.867188 15.6875 30.816406 15.6875 Z M 26.207031 40.195312 C 26.527344 40.152344 26.875 40.09375 27.257812 40.011719 C 27.445312 39.972656 27.550781 40.222656 27.390625 40.324219 C 26.800781 40.691406 25.71875 41.179688 23.753906 41.527344 C 18.660156 42.28125 17.660156 39.328125 15.699219 38.910156 C 15.574219 38.496094 15.425781 35.476562 18.507812 33.171875 C 18.644531 32.503906 16.089844 33.25 16.089844 33.25 C 16.089844 33.25 18.699219 31.707031 21.121094 32.378906 C 23.949219 33.160156 26.777344 35.390625 28.359375 36.957031 C 28.726562 37.320312 28.625 38.195312 28.285156 38.582031 C 27.785156 39.15625 26.878906 39.738281 26.207031 40.195312 Z M 33.332031 47.667969 C 33.117188 48.003906 32.917969 48.355469 32.746094 48.691406 C 32.464844 49.234375 31.679688 49.21875 31.433594 48.65625 C 31.320312 48.398438 31.058594 48.292969 30.816406 48.324219 C 30.570312 48.292969 30.308594 48.398438 30.195312 48.65625 C 29.949219 49.21875 29.164062 49.234375 28.882812 48.691406 C 28.710938 48.355469 28.511719 48.003906 28.296875 47.667969 C 27.839844 46.960938 27.554688 45.914062 28.144531 45.320312 C 29.808594 43.660156 30.457031 40.617188 30.734375 40.617188 C 30.757812 40.617188 30.785156 40.640625 30.8125 40.675781 C 30.84375 40.640625 30.871094 40.617188 30.894531 40.617188 C 31.171875 40.617188 31.820312 43.660156 33.484375 45.320312 C 34.078125 45.914062 33.789062 46.960938 33.332031 47.667969 Z M 46.09375 38.910156 C 44.128906 39.328125 43.132812 42.28125 38.039062 41.527344 C 36.074219 41.179688 34.988281 40.691406 34.402344 40.324219 C 34.238281 40.222656 34.34375 39.972656 34.53125 40.011719 C 34.914062 40.09375 35.265625 40.152344 35.585938 40.195312 C 34.914062 39.738281 34.007812 39.15625 33.503906 38.582031 C 33.164062 38.191406 33.066406 37.320312 33.433594 36.957031 C 35.011719 35.390625 37.839844 33.160156 40.667969 32.378906 C 43.089844 31.707031 45.703125 33.25 45.703125 33.25 C 45.703125 33.25 43.144531 32.503906 43.28125 33.171875 C 46.367188 35.476562 46.21875 38.496094 46.09375 38.910156 Z M 46.09375 38.910156 " fill-opacity="1" fill-rule="nonzero"/></g><path fill="#ed5b2d" d="M 33.601562 29.402344 L 32.117188 29.375 L 30.496094 21.167969 L 29.335938 26.726562 L 27.863281 26.78125 L 26.714844 22.832031 L 26.257812 24.097656 L 19.304688 24.097656 L 19.304688 22.578125 L 25.191406 22.578125 L 26.078125 20.117188 L 27.523438 20.164062 L 28.472656 23.429688 L 29.773438 17.195312 L 31.265625 17.203125 L 32.925781 25.621094 L 34.261719 19.917969 L 35.714844 19.832031 L 36.617188 22.316406 L 42.207031 22.316406 L 42.207031 23.839844 L 35.550781 23.839844 L 35.15625 22.753906 Z M 33.601562 29.402344 " fill-opacity="1" fill-rule="nonzero"/><g fill="#ed5b2d" fill-opacity="1"><g transform="translate(58.756304, 38.873384)"><g><path d="M 6.847656 -1.878906 L 3.664062 -1.886719 C 3.019531 -1.886719 2.695312 -2.210938 2.695312 -2.855469 L 2.695312 -5.34375 C 2.695312 -6.007812 3.003906 -6.34375 3.621094 -6.34375 L 6.800781 -6.34375 C 7.445312 -6.351562 7.769531 -6.667969 7.777344 -7.285156 C 7.777344 -7.917969 7.445312 -8.238281 6.777344 -8.230469 L 3.648438 -8.230469 C 1.742188 -8.230469 0.792969 -7.269531 0.792969 -5.351562 L 0.792969 -2.902344 C 0.792969 -0.960938 1.742188 0.015625 3.648438 0.015625 L 6.832031 0.015625 C 7.46875 0.015625 7.785156 -0.292969 7.785156 -0.917969 C 7.785156 -1.5625 7.476562 -1.878906 6.847656 -1.878906 Z M 6.847656 -1.878906 "/></g></g></g><g fill="#ed5b2d" fill-opacity="1"><g transform="translate(66.180939, 38.873384)"><g><path d="M 6.847656 -1.878906 L 3.664062 -1.886719 C 3.019531 -1.886719 2.695312 -2.210938 2.695312 -2.855469 L 2.695312 -3.171875 L 5.566406 -3.179688 C 6.199219 -3.179688 6.515625 -3.488281 6.507812 -4.105469 C 6.507812 -4.75 6.183594 -5.082031 5.542969 -5.089844 L 2.695312 -5.074219 L 2.695312 -6.34375 L 6.800781 -6.34375 C 7.445312 -6.351562 7.769531 -6.667969 7.777344 -7.285156 C 7.777344 -7.917969 7.445312 -8.238281 6.777344 -8.230469 L 1.742188 -8.230469 C 1.109375 -8.230469 0.792969 -7.910156 0.792969 -7.277344 L 0.792969 -2.902344 C 0.792969 -0.960938 1.742188 0.015625 3.648438 0.015625 L 6.832031 0.015625 C 7.46875 0.015625 7.785156 -0.292969 7.785156 -0.917969 C 7.785156 -1.5625 7.476562 -1.878906 6.847656 -1.878906 Z M 6.847656 -1.878906 "/></g></g></g><g fill="#ed5b2d" fill-opacity="1"><g transform="translate(73.605575, 38.873384)"><g><path d="M 1.726562 0 C 2.371094 0 2.695312 -0.316406 2.695312 -0.960938 L 2.695312 -6.324219 L 4.914062 -6.324219 C 5.558594 -6.324219 5.882812 -6 5.882812 -5.351562 L 5.882812 -0.953125 C 5.882812 -0.308594 6.199219 0.015625 6.832031 0.015625 C 7.46875 0.015625 7.785156 -0.300781 7.785156 -0.933594 L 7.785156 -5.3125 C 7.785156 -7.253906 6.832031 -8.230469 4.929688 -8.230469 L 1.742188 -8.21875 C 1.109375 -8.21875 0.792969 -7.910156 0.792969 -7.285156 L 0.792969 -0.960938 C 0.792969 -0.316406 1.101562 0 1.726562 0 Z M 1.726562 0 "/></g></g></g><g fill="#ed5b2d" fill-opacity="1"><g transform="translate(81.030211, 38.873384)"><g><path d="M 4.3125 -1.878906 L 3.664062 -1.886719 C 3.019531 -1.886719 2.695312 -2.210938 2.695312 -2.855469 L 2.695312 -6.34375 L 4.273438 -6.34375 C 4.914062 -6.351562 5.238281 -6.667969 5.238281 -7.285156 C 5.238281 -7.917969 4.90625 -8.238281 4.242188 -8.230469 L 2.695312 -8.238281 L 2.695312 -9.179688 C 2.703125 -9.820312 2.386719 -10.140625 1.742188 -10.132812 C 1.109375 -10.132812 0.792969 -9.8125 0.792969 -9.179688 L 0.792969 -2.902344 C 0.792969 -0.960938 1.742188 0.015625 3.648438 0.015625 L 4.296875 0.015625 C 4.929688 0.015625 5.246094 -0.292969 5.246094 -0.917969 C 5.246094 -1.5625 4.9375 -1.878906 4.3125 -1.878906 Z M 4.3125 -1.878906 "/></g></g></g><g fill="#ed5b2d" fill-opacity="1"><g transform="translate(85.886406, 38.873384)"><g><path d="M 6.847656 -1.878906 L 3.664062 -1.886719 C 3.019531 -1.886719 2.695312 -2.210938 2.695312 -2.855469 L 2.695312 -3.171875 L 5.566406 -3.179688 C 6.199219 -3.179688 6.515625 -3.488281 6.507812 -4.105469 C 6.507812 -4.75 6.183594 -5.082031 5.542969 -5.089844 L 2.695312 -5.074219 L 2.695312 -6.34375 L 6.800781 -6.34375 C 7.445312 -6.351562 7.769531 -6.667969 7.777344 -7.285156 C 7.777344 -7.917969 7.445312 -8.238281 6.777344 -8.230469 L 1.742188 -8.230469 C 1.109375 -8.230469 0.792969 -7.910156 0.792969 -7.277344 L 0.792969 -2.902344 C 0.792969 -0.960938 1.742188 0.015625 3.648438 0.015625 L 6.832031 0.015625 C 7.46875 0.015625 7.785156 -0.292969 7.785156 -0.917969 C 7.785156 -1.5625 7.476562 -1.878906 6.847656 -1.878906 Z M 6.847656 -1.878906 "/></g></g></g><g fill="#ed5b2d" fill-opacity="1"><g transform="translate(93.311043, 38.873384)"><g><path d="M 7.132812 -5.707031 L 7.132812 -7.285156 C 7.132812 -7.910156 6.816406 -8.21875 6.183594 -8.21875 L 3.648438 -8.230469 C 1.742188 -8.230469 0.792969 -7.253906 0.792969 -5.3125 L 0.792969 -0.933594 C 0.792969 -0.300781 1.109375 0.015625 1.742188 0.015625 C 2.378906 0.015625 2.695312 -0.308594 2.695312 -0.953125 L 2.695312 -5.351562 C 2.695312 -6 3.019531 -6.324219 3.664062 -6.324219 L 5.230469 -6.324219 L 5.230469 -5.707031 C 5.230469 -5.066406 5.558594 -4.742188 6.199219 -4.742188 C 6.824219 -4.742188 7.132812 -5.066406 7.132812 -5.707031 Z M 7.132812 -5.707031 "/></g></g></g><g fill="#231f20" fill-opacity="1"><g transform="translate(101.243163, 39.744727)"><g><path d="M 1.757812 -8.226562 C 1.117188 -8.210938 0.789062 -7.894531 0.789062 -7.269531 L 0.789062 -0.957031 C 0.789062 -0.316406 1.097656 0 1.722656 0 C 2.363281 0 2.6875 -0.316406 2.6875 -0.957031 L 2.6875 -6.3125 L 4.253906 -6.3125 C 4.894531 -6.3125 5.21875 -5.988281 5.21875 -5.339844 L 5.21875 -0.949219 C 5.21875 -0.308594 5.535156 0.015625 6.167969 0.015625 C 6.800781 0.015625 7.117188 -0.300781 7.117188 -0.933594 L 7.101562 -6.3125 L 8.683594 -6.3125 C 9.324219 -6.3125 9.648438 -5.988281 9.648438 -5.339844 L 9.648438 -0.949219 C 9.648438 -0.308594 9.964844 0.015625 10.597656 0.015625 C 11.230469 0.015625 11.546875 -0.300781 11.546875 -0.933594 L 11.546875 -5.300781 C 11.546875 -7.238281 10.597656 -8.210938 8.699219 -8.210938 Z M 1.757812 -8.226562 "/></g></g></g><g fill="#231f20" fill-opacity="1"><g transform="translate(112.429236, 39.744727)"><g><path d="M 6.835938 -8.234375 C 6.195312 -8.234375 5.871094 -7.910156 5.871094 -7.269531 L 5.871094 -1.90625 L 3.65625 -1.90625 C 3.015625 -1.90625 2.6875 -2.230469 2.6875 -2.878906 L 2.6875 -7.269531 C 2.6875 -7.910156 2.371094 -8.234375 1.738281 -8.234375 C 1.105469 -8.234375 0.789062 -7.917969 0.789062 -7.285156 L 0.789062 -2.917969 C 0.789062 -0.980469 1.738281 -0.0078125 3.636719 -0.0078125 L 6.820312 0 C 7.453125 0 7.769531 -0.308594 7.769531 -0.933594 L 7.769531 -7.269531 C 7.769531 -7.910156 7.460938 -8.234375 6.835938 -8.234375 Z M 6.835938 -8.234375 "/></g></g></g><g fill="#231f20" fill-opacity="1"><g transform="translate(119.835348, 39.744727)"><g><path d="M 7.117188 -7.269531 C 7.117188 -7.894531 6.800781 -8.210938 6.167969 -8.210938 L 3.636719 -8.210938 C 1.738281 -8.210938 0.800781 -7.378906 0.808594 -5.710938 C 0.808594 -4.003906 1.765625 -3.148438 3.671875 -3.15625 L 4.289062 -3.15625 C 4.914062 -3.148438 5.21875 -2.933594 5.21875 -2.515625 C 5.210938 -2.089844 4.886719 -1.875 4.261719 -1.875 L 1.707031 -1.875 C 1.097656 -1.867188 0.800781 -1.535156 0.789062 -0.878906 C 0.800781 -0.292969 1.105469 0 1.714844 -0.0078125 L 4.28125 0 C 6.152344 -0.0078125 7.09375 -0.847656 7.101562 -2.53125 C 7.109375 -4.183594 6.167969 -5.03125 4.28125 -5.0625 L 3.664062 -5.0625 C 3.015625 -5.0625 2.6875 -5.269531 2.6875 -5.671875 C 2.6875 -6.097656 3.015625 -6.3125 3.65625 -6.3125 L 6.195312 -6.3125 C 6.800781 -6.328125 7.109375 -6.644531 7.117188 -7.269531 Z M 7.117188 -7.269531 "/></g></g></g><g fill="#231f20" fill-opacity="1"><g transform="translate(126.600923, 39.744727)"><g><path d="M 3.65625 -0.964844 L 3.65625 -7.269531 C 3.65625 -7.894531 3.339844 -8.21875 2.707031 -8.226562 L 1.757812 -8.210938 C 1.125 -8.203125 0.808594 -7.871094 0.808594 -7.230469 C 0.800781 -6.621094 1.117188 -6.3125 1.757812 -6.3125 L 1.757812 -0.964844 C 1.757812 -0.324219 2.074219 0 2.714844 0 C 3.339844 0 3.65625 -0.324219 3.65625 -0.964844 Z M 2.648438 -10.75 C 2.167969 -10.78125 1.683594 -10.316406 1.707031 -9.808594 C 1.691406 -9.324219 2.160156 -8.851562 2.648438 -8.875 C 3.140625 -8.851562 3.605469 -9.324219 3.589844 -9.808594 C 3.613281 -10.316406 3.132812 -10.78125 2.648438 -10.75 Z M 2.648438 -10.75 "/></g></g></g><g fill="#231f20" fill-opacity="1"><g transform="translate(129.902853, 39.744727)"><g><path d="M 6.835938 -1.875 L 3.65625 -1.882812 C 3.015625 -1.882812 2.6875 -2.207031 2.6875 -2.847656 L 2.6875 -5.332031 C 2.6875 -5.996094 2.996094 -6.328125 3.613281 -6.328125 L 6.785156 -6.328125 C 7.425781 -6.335938 7.75 -6.652344 7.761719 -7.269531 C 7.761719 -7.902344 7.425781 -8.21875 6.761719 -8.210938 L 3.636719 -8.210938 C 1.738281 -8.210938 0.789062 -7.253906 0.789062 -5.339844 L 0.789062 -2.894531 C 0.789062 -0.957031 1.738281 0.015625 3.636719 0.015625 L 6.820312 0.015625 C 7.453125 0.015625 7.769531 -0.292969 7.769531 -0.917969 C 7.769531 -1.558594 7.460938 -1.875 6.835938 -1.875 Z M 6.835938 -1.875 "/></g></g></g></svg>